<svg xmlns="http://www.w3.org/2000/svg" width="300" height="300" viewBox="0 0 1000 1000">
  <defs>
    <style>
      .cls-1, .cls-2 {
        fill-rule: evenodd;
      }

      .cls-2 {
        fill: #5e5b5b;
      }
    </style>
  </defs>
  <path id="幺" class="cls-1" d="M439.1,88.416c-74.745,133.8-218.7,291.6-358.963,389.415,13.842,12,36.912,32.3,47.985,47.062,142.109-106.12,285.14-264.839,366.345-396.8,11.073,0.923,19.378-2.768,23.07-8.305ZM603.356,609.789A1672.248,1672.248,0,0,1,755.616,786.04c-150.414,7.383-305.442,12.919-436.477,17.533C421.568,674.384,540.607,497.209,618.121,363.406c11.073,0,19.378-3.692,23.07-9.228l-80.283-37.834c-78.436,154.1-211.317,357.117-318.36,490l-110.734,3.691,24.915,77.514c7.383-.923,12.919-5.537,14.765-12.919,151.336-7.383,394.028-19.379,623.8-34.143,22.147,33.22,41.526,64.594,55.367,92.278l59.058-38.757c-47.062-89.51-150.413-220.545-251-316.515Z"/>
  <path id="சூர்யா" class="cls-2" d="M188.019,859.17l0.031-.923-7.143-.239-0.111,3.317a2.026,2.026,0,0,0-1.165.625,1.993,1.993,0,0,0-.466,1.314,2.308,2.308,0,0,0,.152.917,2.085,2.085,0,0,0,.519.766,2.621,2.621,0,0,0,.881.536,3.845,3.845,0,0,0,1.241.227,4.208,4.208,0,0,0,1.183-.112,2.533,2.533,0,0,0,.9-0.416,2.207,2.207,0,0,0,.708-0.882,3.627,3.627,0,0,0,.273-1.368l0.021-.635,2.733,0.092,0.03-.917-2.733-.092,0.078-2.3ZM184,862.891a2.008,2.008,0,0,1-.517,1.464,1.976,1.976,0,0,1-1.451.414,2.7,2.7,0,0,1-.794-0.134,1.7,1.7,0,0,1-.568-0.314,1.207,1.207,0,0,1-.334-0.464,1.415,1.415,0,0,1-.1-0.582,0.994,0.994,0,0,1,.406-0.861,1.92,1.92,0,0,1,1.109-.227l2.267,0.076Zm0.052-1.545-2.224-.075,0.077-2.3,2.224,0.074Zm6.4,3.487a1.551,1.551,0,0,0-.248-0.562,1.282,1.282,0,0,0-.456-0.386,1.607,1.607,0,0,0-.683-0.158,1.978,1.978,0,0,0-.492.043,1.8,1.8,0,0,0-.436.156,1.727,1.727,0,0,0-.367.248,1.419,1.419,0,0,0-.272.318h-0.025l0.058-1.727-1.031-.035-0.128,3.833,1.031,0.034,0.013-.4a1.938,1.938,0,0,1,.111-0.578,1.778,1.778,0,0,1,.278-0.516,1.4,1.4,0,0,1,.43-0.366,1.08,1.08,0,0,1,.568-0.129,0.712,0.712,0,0,1,.33.083,0.641,0.641,0,0,1,.22.2,0.829,0.829,0,0,1,.119.287,1.3,1.3,0,0,1,.03.331,1.538,1.538,0,0,1-.376.984,2.613,2.613,0,0,1-.975.675,5.714,5.714,0,0,1-1.459.376,10.912,10.912,0,0,1-1.827.08q-0.885-.029-1.666-0.118a11.792,11.792,0,0,1-1.36-.228,3.782,3.782,0,0,1-.911-0.32,0.482,0.482,0,0,1-.323-0.394,0.2,0.2,0,0,1,.144-0.175,1.324,1.324,0,0,1,.368-0.088,4.383,4.383,0,0,1,.513-0.027c0.191,0,.385,0,0.582.01q0.37,0.012.912,0.075t1.124,0.144l0.11-.82c-0.18-.031-0.364-0.06-0.554-0.088s-0.379-.05-0.567-0.069-0.368-.035-0.539-0.05-0.328-.023-0.471-0.028c-0.293-.01-0.6-0.007-0.909.007a4.067,4.067,0,0,0-.856.126,1.617,1.617,0,0,0-.64.318,0.767,0.767,0,0,0-.265.586,1.037,1.037,0,0,0,.333.778,2.868,2.868,0,0,0,1.023.61,8.581,8.581,0,0,0,1.659.417,17.9,17.9,0,0,0,2.245.2,12.685,12.685,0,0,0,1.467-.033,9.3,9.3,0,0,0,1.34-.2,5.957,5.957,0,0,0,1.151-.386,3.564,3.564,0,0,0,.9-0.58,2.581,2.581,0,0,0,.6-0.781,2.4,2.4,0,0,0,.237-1A2.588,2.588,0,0,0,190.443,864.833Zm6.874-5.352,0.031-.923-7.1-.238L190,865.84l1.031,0.035,0.22-6.6,3.091,0.1-0.206,6.169-3.313,2.216,0.534,0.754,3.8-2.552,0.219-6.553ZM194,855.675a0.931,0.931,0,0,0-.188-0.3,0.975,0.975,0,0,0-.289-0.211,0.881,0.881,0,0,0-.362-0.087,0.869,0.869,0,0,0-.367.063,0.975,0.975,0,0,0-.3.191,0.921,0.921,0,0,0-.207.292,0.939,0.939,0,0,0,.163,1.034,0.914,0.914,0,0,0,.289.207,0.936,0.936,0,0,0,1.03-.163,0.917,0.917,0,0,0,.208-0.289,0.929,0.929,0,0,0,.085-0.362A0.956,0.956,0,0,0,194,855.675ZM209.7,866.5l0.251-7.52-1.03-.034-0.221,6.6-4.7-.157,0.221-6.6-1.031-.035-0.148,4.442a3.03,3.03,0,0,1-.449,1.673,1.342,1.342,0,0,1-1.217.548,1.218,1.218,0,0,1-.961-0.4,0.939,0.939,0,0,1-.14-0.237,1.39,1.39,0,0,1-.084-0.308,2.972,2.972,0,0,1-.034-0.4c0-.149,0-0.32,0-0.513l0.164-4.9-1.031-.034-0.167,5.007q-0.013.383,0.005,0.7a3.322,3.322,0,0,0,.076.562,2.052,2.052,0,0,0,.157.452,1.657,1.657,0,0,0,.913.829,2.719,2.719,0,0,0,.953.186,2.242,2.242,0,0,0,.612-0.058,2.123,2.123,0,0,0,.519-0.2,1.678,1.678,0,0,0,.407-0.308,1.617,1.617,0,0,0,.28-0.39l0.031,0-0.029.873Zm9.914-6.272,0.031-.924-7.118-.238-0.252,7.52,1.031,0.035,0.22-6.6,3.1,0.1-0.221,6.6,1.03,0.035,0.221-6.6Z"/>
</svg>
